<!-- <svg width="2065" height="2500" viewBox="0 0 256 310" xmlns="http://www.w3.org/2000/svg" preserveAspectRatio="xMidYMid"><path d="M0 245.262l16.322 8.161L19 248.668V59.333l-2.678-3.494L0 64v181.262" fill="#9D5025"/><path d="M47.678 63.57l-31.356-7.731v197.584l31.356-7.302V63.57" fill="#F68536"/><path d="M143.893 78.604l22.335-11.597 74.309 28.778-19.758 2.577-76.886-19.758" fill="#6B3A19"/><path d="M144.752 230.658l21.906 11.597 74.308-28.778-19.758-2.578-76.456 19.759" fill="#FBBF93"/><path d="M150.336 198.872l39.087 5.155 2.244-4.027v-90l-2.244-4.765-39.087 5.154v88.483M35.651 45.96l24.054-12.027L62.333 39v231l-2.628 5.329-24.054-12.027V45.96" fill="#9D5025"/><path d="M108.671 259.007l-48.966 15.892V33.933l48.966 15.893v209.181" fill="#F68536"/><path d="M89.772 289.933L128 309.262l4-4.595v-299L128 0 89.772 19.329v270.604M219.919 98.362l19.759-2.577 1.697 2.465V211l-1.697 2.906-19.759-2.577V98.362" fill="#9D5025"/><path d="M189.423 105.235v99.221l40.805-49.825-40.805-49.396" fill="#F68536"/><path d="M239.678 55.839L128 0v309.262l128-64V64l-16.322-8.161zm0 158.217l-73.45 21.936V73.27l73.45 21.936v118.85z" fill="#F68536"/></svg> -->
<!-- <svg class="w-6 h-6" height="48" width="48" xmlns="http://www.w3.org/2000/svg"><path d="M24 44C12.972 44 4 35.028 4 24S12.972 4 24 4s20 8.972 20 20-8.972 20-20 20zm0-42C11.869 2 2 11.869 2 24s9.869 22 22 22 22-9.869 22-22S36.131 2 24 2zm-6.769 33.25h-5.355l6.345-13.291 2.681 5.533-3.671 7.758zm1.883-16.035a1.001 1.001 0 00-.9-.564h-.003a.998.998 0 00-.899.57L9.389 35.819a.998.998 0 00.902 1.431h7.573c.387 0 .739-.223.905-.572l4.146-8.763a1.002 1.002 0 00-.004-.864l-3.797-7.836zM36.125 35.25h-5.452l-9.912-21.297a1.001 1.001 0 00-.907-.578h-3.603l.004-4.125h7.22l9.864 21.295a1 1 0 00.907.58h1.879v4.125zm1-6.125h-2.24L25.021 7.83a1.003 1.003 0 00-.908-.58h-8.857a1 1 0 00-1 .999l-.006 6.125a1 1 0 001 1.001h3.967l9.912 21.297a1 1 0 00.906.578h7.09a1 1 0 001-1v-6.125a1 1 0 00-1-1z" fill="#D45B07" fill-rule="evenodd"></path></svg> -->
<svg class="w-6 h-6" height="40" width="40"
    xmlns="http://www.w3.org/2000/svg">
    <defs>
        <!-- <linearGradient x1="0%" y1="100%" x2="100%" y2="0%" id="Arch_AWS-Lambda_32_svg__a">
            <stop stop-color="#C8511B" offset="0%"></stop>
            <stop stop-color="#F90" offset="100%"></stop>
        </linearGradient> -->
    </defs>
    <g fill="none" fill-rule="evenodd">
        <path d="M0 0h40v40H0z" fill="url(#Arch_AWS-Lambda_32_svg__a)"></path>
        <path d="M14.386 33H8.27l6.763-14.426 3.064 6.44L14.387 33zm1.085-15.798a.49.49 0 00-.442-.282h-.002a.493.493 0 00-.441.285l-7.538 16.08a.507.507 0 00.028.482c.09.145.247.233.415.233h7.206c.19 0 .363-.111.445-.286l3.944-8.489a.508.508 0 00-.002-.432l-3.613-7.591zM32.018 33h-5.882l-9.47-20.711a.491.491 0 00-.444-.289H12.37l.005-5h7.549l9.424 20.71c.08.177.256.29.446.29h2.224v5zm.49-6h-2.4L20.684 6.29a.492.492 0 00-.446-.29h-8.353a.496.496 0 00-.491.5l-.006 6c0 .132.052.259.144.354a.488.488 0 00.347.146h4.032l9.468 20.711c.08.176.254.289.445.289h6.686a.495.495 0 00.491-.5v-6c0-.276-.219-.5-.491-.5z" fill="#F90"></path>
    </g>
</svg>