<!-- <svg width="2215" height="2500" viewBox="0 0 256 289" xmlns="http://www.w3.org/2000/svg" preserveAspectRatio="xMidYMid"><path d="M165.258 288.501h3.508l57.261-28.634.953-1.347V29.964l-.953-1.354L168.766 0h-3.551l.043 288.501" fill="#5294CF"/><path d="M90.741 288.501h-3.557l-57.212-28.634-1.161-1.997-.589-226.742 1.75-2.518L87.184 0h3.601l-.044 288.501" fill="#1F5B98"/><path d="M87.285 0h81.426v288.501H87.285V0z" fill="#2D72B8"/><path d="M256 137.769l-1.935-.429-27.628-2.576-.41.204-57.312-2.292h-81.43l-57.313 2.292V91.264l-.06.032.06-.128 57.313-13.28h81.43l57.312 13.28 21.069 11.199v-7.2l8.904-.974-.922-1.798-28.192-20.159-.859.279-57.312-17.759h-81.43L29.972 72.515V28.61L0 63.723v30.666l.232-.168 8.672.946v7.348L0 107.28v30.513l.232-.024 8.672.128v12.807l-7.482.112L0 150.68v30.525l8.904 4.788v7.433l-8.531.942-.373-.28v30.661l29.972 35.118v-43.901l57.313 17.759h81.43l57.481-17.811.764.335 27.821-19.862 1.219-1.979-8.904-.982v-7.284l-1.167-.466-19.043 10.265-.69 1.44-57.481 13.203v.016h-81.43v-.016l-57.313-13.259v-43.864l57.313 2.284v.056h81.43l57.312-2.34 1.305.6 26.779-2.306 1.889-.923-8.904-.128v-12.807l8.904-.128" fill="#1A476F"/><path d="M226.027 215.966v43.901L256 224.749v-30.461l-29.8 21.626-.173.052M226.027 197.421l.173-.04 29.8-16.028v-30.649l-29.973 2.757v43.96M226.2 91.208l-.173-.04v43.8L256 137.769v-30.634l-29.8-15.927M226.2 72.687L256 94.193V63.731L226.027 28.61v43.905l.173.06v.112" fill="#2D72B8"/></svg> -->
<svg class="w-6 h-6" height="40" width="40"
    xmlns="http://www.w3.org/2000/svg">
    <defs>
        <!-- <linearGradient x1="0%" y1="100%" x2="100%" y2="0%" id="Arch_Amazon-DynamoDB_32_svg__a">
            <stop stop-color="#2E27AD" offset="0%"></stop>
            <stop stop-color="#527FFF" offset="100%"></stop>
        </linearGradient> -->
    </defs>
    <g fill="none" fill-rule="evenodd">
        <path d="M0 0h40v40H0z" fill="url(#Arch_Amazon-DynamoDB_32_svg__a)"></path>
        <path d="M26.066 31.019v-2.866c-1.526 1.308-4.694 2.17-8.538 2.17-3.847 0-7.015-.863-8.541-2.172v2.863c0 1.411 3.508 2.984 8.54 2.984 5.027 0 8.531-1.57 8.54-2.98zm.001-8.175l.987-.006v.006c0 .625-.312 1.207-.906 1.742.726.653.906 1.294.906 1.75l-.001.008v4.67c0 2.272-4.094 3.986-9.525 3.986-5.403 0-9.48-1.696-9.523-3.951 0-.01-.005-.016-.005-.025v-4.69l.002-.008c.002-.454.183-1.09.9-1.737-.716-.65-.897-1.284-.901-1.734L8 22.85v-4.69l.002-.007c.002-.455.184-1.09.902-1.738-.718-.65-.9-1.283-.903-1.734L8 14.675v-4.69c0-.006.003-.009.003-.014C8.023 7.706 12.109 6 17.528 6c2.608 0 5.114.43 6.874 1.177l-.381.925c-1.643-.7-4.01-1.1-6.493-1.1-5.033 0-8.54 1.573-8.54 2.984 0 1.413 3.507 2.986 8.54 2.986.138.001.268 0 .403-.006l.04 1c-.148.008-.296.008-.443.008-3.847 0-7.015-.863-8.541-2.172v2.874c.006.545.543 1.02.992 1.322 1.348.89 3.763 1.496 6.454 1.622l-.047 1c-2.723-.126-5.11-.712-6.645-1.608-.384.295-.753.692-.753 1.15 0 1.411 3.507 2.984 8.54 2.984.496 0 .98-.017 1.453-.05l.072.998c-.496.036-1.006.054-1.525.054-3.847 0-7.015-.862-8.541-2.171v2.861c.006.558.542 1.033.992 1.334 1.54 1.018 4.434 1.65 7.549 1.65h.219v1.003h-.22c-3.165 0-6.029-.612-7.785-1.641-.384.295-.754.693-.754 1.152 0 1.411 3.507 2.984 8.54 2.984 5.024 0 8.527-1.567 8.538-2.978V26.333c0-.455-.367-.85-.749-1.145-.243.143-.505.28-.801.406l-.382-.922c.362-.156.678-.323.939-.5.453-.306.994-.786.994-1.328zm5.288-8.355h-3.283a.491.491 0 01-.4-.21.506.506 0 01-.067-.452l1.455-4.348h-6.528l-3.121 6.012h3.169a.49.49 0 01.392.197.505.505 0 01.084.436l-2.718 10.108 11.017-11.743zm1.51-.155L19.705 28.36a.493.493 0 01-.6.09.505.505 0 01-.233-.568l3.063-11.39h-3.342a.492.492 0 01-.423-.242.505.505 0 01-.014-.492l3.642-7.013a.493.493 0 01.436-.267h7.515c.16 0 .309.078.401.209a.51.51 0 01.066.453l-1.455 4.347h3.746c.198 0 .376.12.454.304a.51.51 0 01-.096.543zM9.728 31.04c.571.332 1.27.626 2.079.87l.281-.96c-.734-.222-1.363-.484-1.869-.779l-.491.869zm2.079-7.232l.281-.96c-.732-.221-1.36-.484-1.869-.78l-.491.87c.573.334 1.273.627 2.079.87zm-2.08-8.974l.492-.868c.505.294 1.135.558 1.87.78l-.282.96c-.81-.244-1.508-.538-2.08-.872z" fill="#527FFF"></path>
    </g>
</svg>